<?xml version="1.0" encoding="utf-8"?>
<!-- Generator: Adobe Illustrator 23.0.3, SVG Export Plug-In . SVG Version: 6.00 Build 0)  -->
<svg version="1.1" id="Layer_1" xmlns="http://www.w3.org/2000/svg" xmlns:xlink="http://www.w3.org/1999/xlink" x="0px" y="0px"
	 viewBox="0 0 595.28 141.73" style="enable-background:new 0 0 595.28 141.73;" xml:space="preserve">
<style type="text/css">
	.st0{fill:#FFFFFF;}
</style>
<path class="st0" d="M109.18,401.01c0.59-0.11,1.6-0.22,2.73,0.18c2.67,0.94,3.45,3.84,3.52,4.13c-0.08,9.42-0.16,18.84-0.24,28.25
	c-0.03,0.42-0.21,2.26-1.77,3.71c-1.75,1.63-3.89,1.5-4.25,1.47c0,0.39,0,0.79,0,1.18h14.02v-1.18c-0.37,0.05-2.34,0.3-4.12-1.05
	c-1.58-1.2-1.97-2.85-2.06-3.28c0-9.52,0-19.04,0-28.56l14.64,34.15h0.73l14.93-34.29v28.96c-0.16,0.48-0.78,2.14-2.54,3.26
	c-1.62,1.03-3.22,0.98-3.75,0.94c0,0.38,0,0.75,0,1.13l19.13-0.08v-1.31c-0.6,0.02-2.48-0.01-4.2-1.34
	c-1.07-0.83-1.62-1.8-1.88-2.37c-0.03-9.9-0.05-19.8-0.08-29.71c0.11-0.43,0.6-2.08,2.26-3.23c1.7-1.18,3.46-1.02,3.9-0.97
	c0-0.52,0-1.05,0-1.57h-12.58l-12.82,30.79l-12.21-30.79h-13.37V401.01z"/>
<path class="st0" d="M204.71,421.96c-3.57-0.41-7.35-0.64-11.3-0.59c-0.5,0.01-1,0.01-1.49,0.03c-2.79-7.08-5.9-14.91-8.69-21.99
	h-7.77c0.71,0.53,1.98,2.12,2.84,3.35c0.61,0.87,1,1.71,1.26,2.38c-3.98,9.76-7.95,19.51-11.93,29.27c-0.55,0.94-1.42,2.2-2.77,3.4
	c-0.87,0.78-1.73,1.34-2.46,1.75v0.4c2.38,0,6.2,0,8.58,0l0-0.4l-0.94-1.46c1.52-2.15,4.13-5.29,8.18-8.07
	c3.63-2.49,7.09-3.77,9.5-4.46c1.26,3.52,2.52,7.04,3.78,10.56l-1.54,3.43l0.01,0.4h11.05l0.01-0.4c-0.54-0.43-1.14-0.95-1.74-1.58
	c-0.55-0.57-1.01-1.13-1.39-1.65c-1.7-4.13-3.4-8.26-5.11-12.39c1.43-0.39,3.11-0.74,5.01-0.94c2.67-0.29,5.02-0.21,6.92-0.01
	C204.71,422.64,204.71,422.3,204.71,421.96z M179.74,423.95c-2.68,1.2-4.71,2.64-6.13,3.8l7.8-19.21l5.29,13.35
	C184.89,422.17,182.44,422.73,179.74,423.95z"/>
<path class="st0" d="M243.63,438.52c-2.45-1.27-3.69-3.45-5.05-6.3c-3.05-6.35-3.17-8.6-5.92-10.98c-0.77-0.67-1.48-1.12-1.95-1.39
	c4.93-0.82,8.56-5.08,8.59-9.96c0.03-5.11-4.85-9.75-12.33-10.5c-7.8,0-12.37,0-20.16,0v1.48c0.36-0.01,3.07-0.06,4.85,2.08
	c1.07,1.29,1.26,2.71,1.3,3.29v27.11c0,0.35-0.03,2.48-1.79,4.1c-1.81,1.67-4.03,1.48-4.36,1.44c0,0.35,0,0.69,0,1.04h18.78v-1.04
	c-0.51,0.01-2.2,0-3.77-1.2c-1.93-1.48-2.22-3.63-2.27-4.03c0-4.41,0-8.81,0-13.22h2.77c0.91,0.28,2.22,0.8,3.49,1.84
	c1.13,0.93,1.65,1.78,3.58,5.63c3.1,6.17,3.95,8.3,4.67,10.5c0.21,0.64,0.37,1.16,0.47,1.52c3.41,0,6.81,0,10.22,0v-0.95
	C244.46,438.9,244.07,438.75,243.63,438.52z M223.33,400.88c10.91,1.36,10.44,15.5,1.89,18.18c-0.21,0.07-0.43,0.1-0.65,0.1h-5.04
	v-18.28H223.33z"/>
<path class="st0" d="M309.12,421.96c-3.57-0.41-7.35-0.64-11.3-0.59c-0.5,0.01-1,0.01-1.49,0.03c-2.79-7.08-5.9-14.91-8.69-21.99
	h-7.77c0.71,0.53,1.98,2.12,2.84,3.35c0.61,0.87,1,1.71,1.26,2.38c-3.98,9.76-7.95,19.51-11.93,29.27c-0.55,0.94-1.42,2.2-2.77,3.4
	c-0.87,0.78-1.73,1.34-2.46,1.75v0.4c2.38,0,6.2,0,8.58,0l0-0.4l-0.94-1.46c1.52-2.15,4.13-5.29,8.18-8.07
	c3.63-2.49,7.09-3.77,9.5-4.46c1.26,3.52,2.52,7.04,3.78,10.56l-1.54,3.43l0.01,0.4h11.05l0.01-0.4c-0.54-0.43-1.14-0.95-1.74-1.58
	c-0.55-0.57-1.01-1.13-1.39-1.65c-1.7-4.13-3.4-8.26-5.11-12.39c1.43-0.39,3.11-0.74,5.01-0.94c2.67-0.29,5.02-0.21,6.92-0.01
	C309.12,422.64,309.12,422.3,309.12,421.96z M284.16,423.95c-2.68,1.2-4.71,2.64-6.13,3.8l7.8-19.21l5.29,13.35
	C289.3,422.17,286.86,422.73,284.16,423.95z"/>
<path class="st0" d="M251.46,405.59v28.73c0,0.39-0.06,0.78-0.21,1.14c-0.25,0.63-0.73,1.5-1.62,2.25c-1.67,1.41-3.6,1.36-4.05,1.34
	c0,0.3,0,0.6,0,0.89h19.11v-1.07c-0.54,0.02-2.35,0-4.02-1.3c-0.78-0.61-1.28-1.3-1.6-1.87c-0.27-0.48-0.41-1.02-0.41-1.58
	l0.04-28.39c0-0.36,0.06-0.72,0.18-1.06c0.25-0.69,0.74-1.69,1.72-2.57c1.66-1.48,3.57-1.56,4.09-1.57c0-0.38,0-0.76,0-1.15h-19.11
	v1.13c0.46,0.01,2.87,0.1,4.57,2.04c0.65,0.75,1,1.53,1.18,2.13C251.42,404.98,251.46,405.29,251.46,405.59z"/>
<path class="st0" d="M360.42,438.52c-2.45-1.27-3.69-3.45-5.05-6.3c-3.05-6.35-3.17-8.6-5.92-10.98c-0.77-0.67-1.48-1.12-1.95-1.39
	c4.93-0.82,8.56-5.08,8.59-9.96c0.03-5.11-4.85-9.75-12.33-10.5c-7.8,0-12.37,0-20.16,0v1.48c0.36-0.01,3.07-0.06,4.85,2.08
	c1.07,1.29,1.26,2.71,1.3,3.29v27.11c0,0.35-0.03,2.48-1.79,4.1c-1.81,1.67-4.03,1.48-4.36,1.44c0,0.35,0,0.69,0,1.04h18.78v-1.04
	c-0.51,0.01-2.2,0-3.77-1.2c-1.93-1.48-2.22-3.63-2.27-4.03c0-4.41,0-8.81,0-13.22h2.77c0.91,0.28,2.22,0.8,3.49,1.84
	c1.13,0.93,1.65,1.78,3.58,5.63c3.1,6.17,3.95,8.3,4.67,10.5c0.21,0.64,0.37,1.16,0.47,1.52c3.41,0,6.81,0,10.22,0v-0.95
	C361.25,438.9,360.86,438.75,360.42,438.52z M340.12,400.88c10.91,1.36,10.44,15.5,1.89,18.18c-0.21,0.07-0.43,0.1-0.65,0.1h-5.04
	v-18.28H340.12z"/>
<path class="st0" d="M484.12,421.96c-3.57-0.41-7.35-0.64-11.3-0.59c-0.5,0.01-1,0.01-1.49,0.03c-2.79-7.08-5.9-14.91-8.69-21.99
	h-7.77c0.71,0.53,1.98,2.12,2.84,3.35c0.61,0.87,1,1.71,1.26,2.38c-3.98,9.76-7.95,19.51-11.93,29.27c-0.55,0.94-1.42,2.2-2.77,3.4
	c-0.87,0.78-1.73,1.34-2.46,1.75v0.4c2.38,0,6.2,0,8.58,0l0-0.4l-0.94-1.46c1.52-2.15,4.13-5.29,8.18-8.07
	c3.63-2.49,7.09-3.77,9.5-4.46c1.26,3.52,2.52,7.04,3.78,10.56l-1.54,3.43l0.01,0.4h11.05l0.01-0.4c-0.54-0.43-1.14-0.95-1.74-1.58
	c-0.55-0.57-1.01-1.13-1.39-1.65c-1.7-4.13-3.4-8.26-5.11-12.39c1.43-0.39,3.11-0.74,5.01-0.94c2.67-0.29,5.02-0.21,6.92-0.01
	C484.12,422.64,484.12,422.3,484.12,421.96z M459.16,423.95c-2.68,1.2-4.71,2.64-6.13,3.8l7.8-19.21l5.29,13.35
	C464.3,422.17,461.86,422.73,459.16,423.95z"/>
<path class="st0" d="M385.47,398.48c-11.96,0-21.65,9.44-21.65,21.08c0,11.64,9.69,21.08,21.65,21.08s21.65-9.44,21.65-21.08
	C407.12,407.92,397.43,398.48,385.47,398.48z M385.46,439.4c-7.81,0-14.14-8.84-14.14-19.75c0-10.91,6.33-19.75,14.14-19.75
	c7.81,0,14.14,8.84,14.14,19.75C399.6,430.56,393.27,439.4,385.46,439.4z"/>
<path class="st0" d="M412.49,427.37"/>
<path class="st0" d="M412.49,427.37v12.65h0.79c0.18-0.45,0.52-1.09,1.17-1.42c1.6-0.81,3.27,1.16,6.91,1.99
	c1.91,0.44,3.43,0.34,4.8,0.26c2.3-0.14,4.29-0.26,6.37-1.5c2.67-1.59,3.85-4.04,4.42-5.23c0.4-0.83,1.26-2.68,1.34-5.23
	c0.02-0.64,0.08-4.59-2.59-7.98c-1.1-1.39-2.77-2.35-6.08-4.21c-5.54-3.12-7.21-3.22-9.03-5.64c-0.67-0.89-1.86-2.52-1.77-4.79
	c0.11-2.84,2.14-4.59,2.38-4.8c0.26-0.21,2.03-1.65,4.55-1.54c2.94,0.13,4.83,2.29,6.04,3.68c2.49,2.85,3.16,6.06,3.37,7.76
	c0.3,0,0.6,0,0.9,0V399.4h-1.08c-0.2,0.57-0.51,1.07-1,1.28c-1.1,0.47-2.25-0.85-4.56-1.7c0,0-1.42-0.53-3.54-0.69
	c-2.31-0.18-5.87,0.39-8.55,2.87c-3.88,3.59-4.03,9.46-2.43,13.22c0.73,1.73,1.81,2.95,2.3,3.46c1.94,2.02,3.57,2.23,6.48,3.73
	c3.17,1.64,5.72,2.95,7.17,5.59c0.23,0.41,2.52,4.73,0.16,8.63c-1.41,2.34-3.98,3.69-6.41,3.81c-5.02,0.26-8.18-4.78-8.99-6.08
	c-1.5-2.4-1.95-4.75-2.11-6.14C413.16,427.37,412.82,427.37,412.49,427.37z"/>
<path class="st0" d="M2.47,41.94c0.92-0.18,2.53-0.34,4.3,0.28c4.21,1.48,5.43,6.04,5.55,6.51c-0.12,14.84-0.25,29.67-0.37,44.51
	c-0.05,0.66-0.33,3.56-2.79,5.84c-2.76,2.56-6.13,2.36-6.69,2.32c0,0.62,0,1.24,0,1.86h22.09v-1.86c-0.58,0.08-3.68,0.48-6.5-1.65
	c-2.49-1.88-3.11-4.49-3.25-5.17c0-15,0-29.99-0.01-44.99l23.07,53.79h1.15l23.52-54.01V95c-0.25,0.76-1.22,3.37-4,5.13
	c-2.55,1.62-5.08,1.54-5.91,1.48c0,0.59,0,1.19,0,1.78l30.14-0.13v-2.06c-0.94,0.03-3.91-0.02-6.62-2.12
	c-1.68-1.3-2.55-2.84-2.97-3.73c-0.04-15.6-0.08-31.2-0.12-46.8c0.18-0.68,0.95-3.27,3.57-5.08c2.68-1.85,5.46-1.61,6.14-1.53
	c0-0.83,0-1.65,0-2.48H62.96l-20.2,48.51L23.53,39.46H2.47V41.94z"/>
<path class="st0" d="M152.96,74.93c-5.63-0.65-11.58-1-17.8-0.94c-0.79,0.01-1.57,0.02-2.34,0.04c-4.39-11.15-9.3-23.49-13.69-34.65
	h-12.24c1.12,0.83,3.13,3.34,4.48,5.28c0.96,1.38,1.57,2.69,1.98,3.75c-6.27,15.37-12.53,30.74-18.8,46.11
	c-0.86,1.49-2.24,3.47-4.37,5.36c-1.38,1.23-2.73,2.11-3.88,2.75v0.62c3.75,0,9.77,0,13.52,0l0-0.62l-1.49-2.3
	c2.39-3.39,6.5-8.34,12.89-12.72c5.73-3.93,11.17-5.95,14.96-7.02c1.98,5.54,3.97,11.09,5.95,16.63l-2.43,5.41l0.02,0.62h17.41
	l0.01-0.62c-0.86-0.67-1.79-1.5-2.75-2.49c-0.87-0.9-1.59-1.78-2.19-2.59c-2.68-6.51-5.36-13.01-8.04-19.52
	c2.26-0.61,4.91-1.16,7.89-1.48c4.2-0.45,7.91-0.32,10.91-0.01C152.96,76.01,152.96,75.47,152.96,74.93z M113.63,78.07
	c-4.22,1.9-7.42,4.16-9.65,5.99l12.29-30.27l8.33,21.03C121.73,75.26,117.88,76.16,113.63,78.07z"/>
<path class="st0" d="M214.27,101.03c-3.86-2-5.81-5.44-7.96-9.92c-4.8-10.01-5-13.55-9.33-17.3c-1.21-1.05-2.33-1.76-3.08-2.19
	c7.77-1.29,13.49-8,13.53-15.69c0.04-8.04-7.63-15.37-19.43-16.54c-12.28,0-19.48,0-31.77,0v2.34c0.56-0.02,4.83-0.1,7.64,3.28
	c1.69,2.03,1.98,4.27,2.05,5.18V92.9c0,0.55-0.05,3.91-2.81,6.46c-2.86,2.64-6.35,2.33-6.88,2.27c0,0.55,0,1.09,0,1.64h29.58v-1.64
	c-0.8,0.02-3.46,0-5.94-1.89c-3.04-2.33-3.5-5.72-3.58-6.35c0-6.94,0-13.88,0-20.82h4.37c1.44,0.44,3.5,1.26,5.51,2.9
	c1.79,1.46,2.6,2.8,5.64,8.87c4.88,9.72,6.22,13.08,7.35,16.55c0.33,1,0.58,1.84,0.74,2.39c5.37,0,10.74,0,16.1,0v-1.5
	C215.59,101.63,214.97,101.39,214.27,101.03z M182.29,41.73c17.18,2.15,16.44,24.42,2.97,28.64c-0.33,0.1-0.68,0.15-1.03,0.15h-7.94
	V41.73H182.29z"/>
<path class="st0" d="M317.45,74.93c-5.63-0.65-11.58-1-17.8-0.94c-0.79,0.01-1.57,0.02-2.34,0.04c-4.39-11.15-9.3-23.49-13.69-34.65
	h-12.24c1.12,0.83,3.13,3.34,4.48,5.28c0.96,1.38,1.57,2.69,1.98,3.75c-6.27,15.37-12.53,30.74-18.8,46.11
	c-0.86,1.49-2.24,3.47-4.37,5.36c-1.38,1.23-2.73,2.11-3.88,2.75v0.62c3.75,0,9.77,0,13.52,0l0-0.62l-1.49-2.3
	c2.39-3.39,6.5-8.34,12.89-12.72c5.73-3.93,11.17-5.95,14.96-7.02c1.98,5.54,3.97,11.09,5.95,16.63l-2.43,5.41l0.02,0.62h17.41
	l0.01-0.62c-0.86-0.67-1.79-1.5-2.75-2.49c-0.87-0.9-1.59-1.78-2.19-2.59c-2.68-6.51-5.36-13.01-8.04-19.52
	c2.26-0.61,4.91-1.16,7.89-1.48c4.2-0.45,7.91-0.32,10.91-0.01C317.45,76.01,317.45,75.47,317.45,74.93z M278.12,78.07
	c-4.22,1.9-7.42,4.16-9.65,5.99l12.29-30.27l8.33,21.03C286.23,75.26,282.37,76.16,278.12,78.07z"/>
<path class="st0" d="M226.61,49.15v45.25c0,0.62-0.1,1.23-0.33,1.8c-0.4,0.99-1.15,2.37-2.55,3.55c-2.63,2.22-5.67,2.14-6.38,2.11
	c0,0.47,0,0.94,0,1.41h30.1v-1.69c-0.85,0.02-3.7,0-6.33-2.04c-1.23-0.95-2.02-2.05-2.52-2.95c-0.42-0.76-0.64-1.61-0.64-2.49
	l0.07-44.72c0-0.57,0.09-1.13,0.28-1.67c0.39-1.09,1.16-2.67,2.71-4.04c2.61-2.33,5.63-2.46,6.44-2.47c0-0.6,0-1.2,0-1.81h-30.1
	v1.78c0.72,0.01,4.53,0.16,7.19,3.21c1.03,1.18,1.57,2.42,1.86,3.36C226.55,48.2,226.61,48.67,226.61,49.15z"/>
<path class="st0" d="M398.26,101.03c-3.86-2-5.81-5.44-7.96-9.92c-4.8-10.01-5-13.55-9.33-17.3c-1.21-1.05-2.33-1.76-3.08-2.19
	c7.77-1.29,13.49-8,13.53-15.69c0.04-8.04-7.63-15.37-19.43-16.54c-12.28,0-19.48,0-31.77,0v2.34c0.56-0.02,4.83-0.1,7.64,3.28
	c1.69,2.03,1.98,4.27,2.05,5.18V92.9c0,0.55-0.05,3.91-2.81,6.46c-2.86,2.64-6.35,2.33-6.88,2.27c0,0.55,0,1.09,0,1.64h29.58v-1.64
	c-0.8,0.02-3.46,0-5.94-1.89c-3.04-2.33-3.5-5.72-3.58-6.35c0-6.94,0-13.88,0-20.82h4.37c1.44,0.44,3.5,1.26,5.51,2.9
	c1.79,1.46,2.6,2.8,5.64,8.87c4.88,9.72,6.22,13.08,7.35,16.55c0.33,1,0.58,1.84,0.74,2.39c5.37,0,10.74,0,16.1,0v-1.5
	C399.58,101.63,398.96,101.39,398.26,101.03z M366.28,41.73c17.18,2.15,16.44,24.42,2.97,28.64c-0.33,0.1-0.68,0.15-1.03,0.15h-7.94
	V41.73H366.28z"/>
<path class="st0" d="M593.14,74.93c-5.63-0.65-11.58-1-17.8-0.94c-0.79,0.01-1.57,0.02-2.34,0.04c-4.39-11.15-9.3-23.49-13.69-34.65
	h-12.24c1.12,0.83,3.13,3.34,4.48,5.28c0.96,1.38,1.57,2.69,1.98,3.75c-6.27,15.37-12.53,30.74-18.8,46.11
	c-0.86,1.49-2.24,3.47-4.37,5.36c-1.38,1.23-2.73,2.11-3.88,2.75v0.62c3.75,0,9.77,0,13.52,0l0-0.62l-1.49-2.3
	c2.39-3.39,6.5-8.34,12.89-12.72c5.73-3.93,11.17-5.95,14.96-7.02c1.98,5.54,3.97,11.09,5.95,16.63l-2.43,5.41l0.02,0.62h17.41
	l0.01-0.62c-0.86-0.67-1.79-1.5-2.75-2.49c-0.87-0.9-1.59-1.78-2.19-2.59c-2.68-6.51-5.36-13.01-8.04-19.52
	c2.26-0.61,4.91-1.16,7.89-1.48c4.2-0.45,7.91-0.32,10.91-0.01C593.14,76.01,593.14,75.47,593.14,74.93z M553.81,78.07
	c-4.22,1.9-7.42,4.16-9.65,5.99l12.29-30.27l8.33,21.03C561.92,75.26,558.06,76.16,553.81,78.07z"/>
<path class="st0" d="M437.73,37.95c-18.84,0-34.11,14.87-34.11,33.21c0,18.34,15.27,33.21,34.11,33.21
	c18.84,0,34.11-14.87,34.11-33.21C471.83,52.82,456.56,37.95,437.73,37.95z M437.7,102.42c-12.31,0-22.28-13.93-22.28-31.12
	c0-17.19,9.98-31.12,22.28-31.12c12.31,0,22.28,13.93,22.28,31.12C459.98,88.49,450.01,102.42,437.7,102.42z"/>
<path class="st0" d="M480.29,83.46"/>
<path class="st0" d="M480.29,83.46v19.92h1.25c0.28-0.71,0.82-1.72,1.85-2.24c2.52-1.27,5.15,1.83,10.88,3.14
	c3.01,0.69,5.41,0.54,7.56,0.41c3.62-0.22,6.75-0.41,10.03-2.37c4.21-2.51,6.06-6.37,6.96-8.23c0.63-1.31,1.99-4.22,2.11-8.23
	c0.03-1.02,0.13-7.23-4.09-12.57c-1.73-2.19-4.37-3.7-9.57-6.64c-8.73-4.92-11.36-5.07-14.22-8.88c-1.05-1.41-2.92-3.97-2.79-7.54
	c0.17-4.48,3.37-7.24,3.75-7.56c0.4-0.34,3.2-2.6,7.16-2.43c4.63,0.21,7.6,3.61,9.51,5.79c3.92,4.48,4.97,9.55,5.3,12.22
	c0.47,0,0.94,0,1.41,0V39.4h-1.71c-0.31,0.9-0.8,1.68-1.58,2.01c-1.74,0.74-3.55-1.34-7.18-2.69c0,0-2.24-0.83-5.57-1.09
	c-3.64-0.28-9.25,0.62-13.46,4.52c-6.11,5.66-6.34,14.9-3.83,20.82c1.16,2.73,2.84,4.64,3.62,5.45c3.06,3.19,5.63,3.51,10.21,5.87
	c4.99,2.58,9,4.65,11.3,8.81c0.36,0.64,3.96,7.45,0.26,13.6c-2.22,3.68-6.27,5.81-10.09,6c-7.91,0.41-12.88-7.53-14.16-9.58
	c-2.37-3.78-3.07-7.48-3.32-9.67C481.34,83.46,480.82,83.46,480.29,83.46z"/>
</svg>
